# xmcd CD database file
#
# Track frame offsets:
#	150
#	3127
#	3895
#	5152
#	6312
#	7435
#	9557
#	10782
#	11432
#	12675
#	13587
#	14457
#	17432
#	19192
#	24967
#	26725
#	27935
#	29155
#	30417
#	31752
#	33010
#	34717
#	35935
#	37120
#	38332
#	44312
#	45610
#	47870
#	52432
#	53567
#	55170
#	57732
#	62377
#	66807
#	71252
#	75737
#	80235
#	84705
#	87172
#	88652
#	89890
#	91500
#	92492
#	93620
#	94770
#	96535
#	101262
#	104355
#	106410
#
# Disc length: 1446 seconds
#
# Revision: 0
# Processed by: cddbd v1.5PL3 Copyright (c) Steve Scherf et al.
# Submitted via: CDex 1.51
#
DISCID=6605a431
DTITLE=坂田稔 - The Jazz Drums
DYEAR=1998
DGENRE=Jazz
TTITLE0=練習 No.2 (1-3)
TTITLE1=練習 No.4
TTITLE2=練習 No.7 (1)
TTITLE3=練習 No.8
TTITLE4=練習 No.9
TTITLE5=練習 No.10 (1-2)
TTITLE6=練習 No.11
TTITLE7=練習 No.12
TTITLE8=練習 No.14
TTITLE9=練習 No.16 (1)
TTITLE10=練習 No.17 (1)
TTITLE11=練習 No.18
TTITLE12=練習 No.19
TTITLE13=練習 No.20 (1-4)
TTITLE14=練習 No.21 (1)
TTITLE15=練習 No.22
TTITLE16=練習 No.23
TTITLE17=練習 No.24 (1)
TTITLE18=練習 No.25 (13)
TTITLE19=練習 No.26 (1)
TTITLE20=練習 No.27 (A)
TTITLE21=練習 No.29 (1)
TTITLE22=練習 No.30
TTITLE23=練習 No.31
TTITLE24=練習 No.32 (1-6)
TTITLE25=練習 No.34 (1)
TTITLE26=練習 No.35 (1-2)
TTITLE27=練習 No.36 (1-5)
TTITLE28=練習 No.37 (1)
TTITLE29=練習 No.38 (1)
TTITLE30=練習 No.39 譜例１における演奏例１〜３
TTITLE31=練習 No.39 譜例５における演奏例１〜３
TTITLE32=練習 No.39 譜例６における演奏例１〜３
TTITLE33=練習 No.39 譜例７における演奏例１〜３
TTITLE34=練習 No.39 譜例１１における演奏例１〜３
TTITLE35=練習 No.39 譜例１２における演奏例１〜３
TTITLE36=練習 No.39 譜例１３における演奏例１〜３
TTITLE37=練習 No.39 譜例１４における演奏例１〜２
TTITLE38=アフロのパターン例
TTITLE39=練習 No.41 (1)
TTITLE40=練習 No.42 (1-2)
TTITLE41=練習 No.43 (1)
TTITLE42=練習 No.44 (1)
TTITLE43=練習 No.45 (1)
TTITLE44=練習 No.47 (1-2)
TTITLE45=練習 No.48 (1-4)
TTITLE46=練習 No.50
TTITLE47=練習 No.51
TTITLE48=練習 No.52
EXTD=YEAR: 1998
EXTT0=
EXTT1=
EXTT2=
EXTT3=
EXTT4=
EXTT5=
EXTT6=
EXTT7=
EXTT8=
EXTT9=
EXTT10=
EXTT11=
EXTT12=
EXTT13=
EXTT14=
EXTT15=
EXTT16=
EXTT17=
EXTT18=
EXTT19=
EXTT20=
EXTT21=
EXTT22=
EXTT23=
EXTT24=
EXTT25=
EXTT26=
EXTT27=
EXTT28=
EXTT29=
EXTT30=
EXTT31=
EXTT32=
EXTT33=
EXTT34=
EXTT35=
EXTT36=
EXTT37=
EXTT38=
EXTT39=
EXTT40=
EXTT41=
EXTT42=
EXTT43=
EXTT44=
EXTT45=
EXTT46=
EXTT47=
EXTT48=
PLAYORDER=
